<svg width="16" height="12" viewBox="0 0 16 12" fill="none" xmlns="http://www.w3.org/2000/svg">
<path d="M9.25358 7.68821C8.8804 7.937 8.44692 8.06852 8 8.06852C7.5531 8.06852 7.11963 7.937 6.74645 7.68821L0.599873 3.59037C0.565771 3.56764 0.532549 3.54394 0.5 3.51956V10.2343C0.5 11.0042 1.12476 11.6152 1.88085 11.6152H14.1191C14.889 11.6152 15.5 10.9904 15.5 10.2343V3.51953C15.4674 3.54396 15.4341 3.56772 15.3999 3.59049L9.25358 7.68821Z" fill="#CFD0D7"/>
<path d="M1.0874 2.86109L7.23397 6.95896C7.46665 7.11409 7.73331 7.19164 7.99997 7.19164C8.26666 7.19164 8.53335 7.11406 8.76603 6.95896L14.9126 2.86109C15.2804 2.61603 15.5 2.20587 15.5 1.76319C15.5 1.00203 14.8808 0.382812 14.1196 0.382812H1.88038C1.11925 0.382842 0.5 1.00206 0.5 1.76393C0.5 2.20587 0.719609 2.61603 1.0874 2.86109Z" fill="#CFD0D7"/>
</svg>
