<svg width="16" height="16" viewBox="0 0 16 16" fill="none" xmlns="http://www.w3.org/2000/svg">
<path d="M15.0916 11.5085L12.9983 9.41518C12.2507 8.66758 10.9798 8.96665 10.6807 9.93851C10.4565 10.6114 9.70885 10.9852 9.036 10.8356C7.54079 10.4618 5.52226 8.51806 5.14846 6.94809C4.92418 6.27522 5.37274 5.52761 6.04559 5.30336C7.01747 5.00432 7.31651 3.73339 6.56891 2.98578L4.47562 0.892492C3.87753 0.369169 2.98041 0.369169 2.45708 0.892492L1.03664 2.31294C-0.383813 3.80815 1.18616 7.77045 4.6999 11.2842C8.21364 14.7979 12.1759 16.4427 13.6712 14.9475L15.0916 13.527C15.615 12.9289 15.615 12.0318 15.0916 11.5085Z" fill="#CFD0D7"/>
</svg>
